M48
;Layer_Color=4229937
;FILE_FORMAT=2:4
INCH,TZ
;TYPE=PLATED
T1F00S00C0.0276
T2F00S00C0.0394
T3F00S00C0.0472
%
T01
X32500Y15500
X33500
X36500Y12000
X37500
X40500Y15500
X41500
X47000Y19000
Y24000
X50500Y23000
X51500
X49500Y27000
X48500
X50000Y30500
X51000
X54000Y27500
X55000
X44998Y26001
X46000Y24000
X43750Y21750
X42750
X40500Y19500
X39500
X38500Y22500
X39000Y24500
X40000
X38000
X37000
Y27500
X38000
X39000
X40000
X40500Y29500
X42250Y29499
X43000Y29999
Y28999
X45000Y30000
X36501Y29502
X33502Y29999
X33500Y26000
X31999Y26998
X31250Y21750
X34500Y22500
X34500Y19500
X33500
X36500Y16500
X37500
X46000Y19000
X27500
X26500
X27000Y24000
X28000
Y27000
X25500
X24500
X24000Y30500
X23000
X20000Y27500
X19000
X22500Y23000
X23500
X30250Y21750
X31000Y29000
X31000Y29999
X30500Y37000
X29500
X27000Y36500
X26000
X24500Y34000
X23500
X18500Y33000
X17500
X18000Y38000
X19000
X21000Y42500
X22000
X26500Y44500
X27500
X31500Y41500
X32500
X33000Y35000
X34000
X36500Y36500
X37500
X40000Y35000
X41000
X39501Y32502
X37500Y32000
X36500
X43500Y32500
X46000
Y33500
X46750Y33000
X44500Y37000
X43500
X42500Y41500
X41500
X46500Y44500
X47500
X52000Y42500
X53000
X55000Y38000
X56000
X55500Y33000
X56500
X50500Y34000
X49500
X48000Y36500
X47000
T02
X29250Y19250
X30037
X30825
T03
X29250Y16888
X30825
M30
