G04*
G04 #@! TF.GenerationSoftware,Altium Limited,Altium Designer,18.1.9 (240)*
G04*
G04 Layer_Color=4408131*
%FSLAX24Y24*%
%MOIN*%
G70*
G01*
G75*
%ADD10O,0.0592X0.0867*%
%ADD11R,0.0592X0.0867*%
%ADD12C,0.0710*%
%ADD13C,0.0080*%
%ADD14O,0.0710X0.1261*%
%ADD15R,0.0710X0.1261*%
%ADD16R,0.0671X0.1064*%
%ADD17O,0.0671X0.1064*%
%ADD18C,0.0749*%
D10*
X27500Y19000D02*
D03*
X41500Y15500D02*
D03*
X23500Y23000D02*
D03*
X55000Y27500D02*
D03*
X37500Y12000D02*
D03*
X20000Y27500D02*
D03*
X51500Y23000D02*
D03*
X33500Y15500D02*
D03*
X18500Y33000D02*
D03*
X50500Y34000D02*
D03*
X31250Y21750D02*
D03*
X41000Y35000D02*
D03*
X40500Y19500D02*
D03*
X28000Y24000D02*
D03*
X27000Y36500D02*
D03*
X44500Y37000D02*
D03*
X37500Y16500D02*
D03*
X30500Y37000D02*
D03*
X48000Y36500D02*
D03*
X34500Y19500D02*
D03*
X34000Y35000D02*
D03*
X47000Y19000D02*
D03*
X19000Y38000D02*
D03*
X22000Y42500D02*
D03*
X27500Y44500D02*
D03*
X42500Y41500D02*
D03*
X47500Y44500D02*
D03*
X53000Y42500D02*
D03*
X56000Y38000D02*
D03*
X37500Y32000D02*
D03*
Y36500D02*
D03*
X49500Y27000D02*
D03*
X56500Y33000D02*
D03*
X32500Y41500D02*
D03*
X25500Y27000D02*
D03*
X51000Y30500D02*
D03*
X43750Y21750D02*
D03*
X47000Y24000D02*
D03*
X24000Y30500D02*
D03*
X24500Y34000D02*
D03*
D11*
X26500Y19000D02*
D03*
X40500Y15500D02*
D03*
X22500Y23000D02*
D03*
X54000Y27500D02*
D03*
X36500Y12000D02*
D03*
X19000Y27500D02*
D03*
X50500Y23000D02*
D03*
X32500Y15500D02*
D03*
X17500Y33000D02*
D03*
X49500Y34000D02*
D03*
X30250Y21750D02*
D03*
X40000Y35000D02*
D03*
X39500Y19500D02*
D03*
X27000Y24000D02*
D03*
X26000Y36500D02*
D03*
X43500Y37000D02*
D03*
X36500Y16500D02*
D03*
X29500Y37000D02*
D03*
X47000Y36500D02*
D03*
X33500Y19500D02*
D03*
X33000Y35000D02*
D03*
X46000Y19000D02*
D03*
X18000Y38000D02*
D03*
X21000Y42500D02*
D03*
X26500Y44500D02*
D03*
X41500Y41500D02*
D03*
X46500Y44500D02*
D03*
X52000Y42500D02*
D03*
X55000Y38000D02*
D03*
X36500Y32000D02*
D03*
Y36500D02*
D03*
X48500Y27000D02*
D03*
X55500Y33000D02*
D03*
X31500Y41500D02*
D03*
X24500Y27000D02*
D03*
X50000Y30500D02*
D03*
X42750Y21750D02*
D03*
X46000Y24000D02*
D03*
X23000Y30500D02*
D03*
X23500Y34000D02*
D03*
D12*
X28000Y27000D02*
D03*
X31999Y26998D02*
D03*
X33502Y29999D02*
D03*
X33500Y26000D02*
D03*
X34500Y22500D02*
D03*
X38500D02*
D03*
X40500Y29500D02*
D03*
X36501Y29502D02*
D03*
X43000Y29999D02*
D03*
X42250Y29499D02*
D03*
X43000Y28999D02*
D03*
X46000Y33500D02*
D03*
X46750Y33000D02*
D03*
X46000Y32500D02*
D03*
X43500D02*
D03*
X39501Y32502D02*
D03*
X44998Y26001D02*
D03*
X45000Y30000D02*
D03*
D13*
X30825Y16888D02*
D03*
X29250D02*
D03*
D14*
X30825Y19250D02*
D03*
X30037D02*
D03*
D15*
X29250D02*
D03*
D16*
X40000Y27500D02*
D03*
D17*
Y24500D02*
D03*
X39000D02*
D03*
X38000D02*
D03*
X37000D02*
D03*
Y27500D02*
D03*
X38000D02*
D03*
X39000D02*
D03*
D18*
X31000Y29999D02*
D03*
X31000Y29000D02*
D03*
M02*
