G04*
G04 #@! TF.GenerationSoftware,Altium Limited,Altium Designer,18.1.9 (240)*
G04*
G04 Layer_Color=45748*
%FSLAX24Y24*%
%MOIN*%
G70*
G01*
G75*
%ADD20C,0.0197*%
%ADD29C,0.0100*%
%ADD30C,0.0157*%
D20*
X31250Y32681D02*
Y31500D01*
X30660D01*
X30463Y31697D01*
Y31894D01*
X30660Y32090D01*
X31250D01*
X30660D01*
X30463Y32287D01*
Y32484D01*
X30660Y32681D01*
X31250D01*
X30069Y31500D02*
X29676D01*
X29872D01*
Y32681D01*
X30069D01*
X29085Y31500D02*
X28692D01*
X28889D01*
Y32287D01*
X29085D01*
X28101Y31500D02*
Y32287D01*
X27511D01*
X27314Y32090D01*
Y31500D01*
X26921D02*
Y32681D01*
Y31894D02*
X26330Y32287D01*
X26921Y31894D02*
X26330Y31500D01*
X31250Y34681D02*
Y33500D01*
Y34090D01*
X30463D01*
Y34681D01*
Y33500D01*
X29479D02*
X29872D01*
X30069Y33697D01*
Y34090D01*
X29872Y34287D01*
X29479D01*
X29282Y34090D01*
Y33894D01*
X30069D01*
X28692Y34287D02*
X28298D01*
X28101Y34090D01*
Y33500D01*
X28692D01*
X28889Y33697D01*
X28692Y33894D01*
X28101D01*
X27708Y34287D02*
Y33500D01*
Y33894D01*
X27511Y34090D01*
X27314Y34287D01*
X27117D01*
X26330Y34484D02*
Y34287D01*
X26527D01*
X26134D01*
X26330D01*
Y33697D01*
X26134Y33500D01*
D29*
X27968Y19677D02*
G03*
X27968Y18323I-967J-677D01*
G01*
X41968Y16177D02*
G03*
X41968Y14823I-967J-677D01*
G01*
X23967Y23677D02*
G03*
X23967Y22323I-967J-677D01*
G01*
X55468Y28177D02*
G03*
X55468Y26823I-967J-677D01*
G01*
X37968Y12677D02*
G03*
X37968Y11323I-967J-677D01*
G01*
X20468Y28177D02*
G03*
X20468Y26823I-967J-677D01*
G01*
X51968Y23677D02*
G03*
X51968Y22323I-967J-677D01*
G01*
X33967Y16177D02*
G03*
X33967Y14823I-967J-677D01*
G01*
X18967Y33677D02*
G03*
X18967Y32323I-967J-677D01*
G01*
X50967Y34677D02*
G03*
X50967Y33323I-967J-677D01*
G01*
X31718Y22427D02*
G03*
X31718Y21073I-967J-677D01*
G01*
X41467Y35677D02*
G03*
X41467Y34323I-967J-677D01*
G01*
X40967Y20177D02*
G03*
X40967Y18823I-967J-677D01*
G01*
X28468Y24677D02*
G03*
X28468Y23323I-967J-677D01*
G01*
X27468Y37177D02*
G03*
X27468Y35823I-967J-677D01*
G01*
X44967Y37677D02*
G03*
X44967Y36323I-967J-677D01*
G01*
X37968Y17177D02*
G03*
X37968Y15823I-967J-677D01*
G01*
X30968Y37677D02*
G03*
X30968Y36323I-967J-677D01*
G01*
X48467Y37177D02*
G03*
X48467Y35823I-967J-677D01*
G01*
X34968Y20177D02*
G03*
X34968Y18823I-967J-677D01*
G01*
X34467Y35677D02*
G03*
X34467Y34323I-967J-677D01*
G01*
X47467Y19677D02*
G03*
X47467Y18323I-967J-677D01*
G01*
X19468Y38677D02*
G03*
X19468Y37323I-967J-677D01*
G01*
X22468Y43177D02*
G03*
X22468Y41823I-967J-677D01*
G01*
X27968Y45177D02*
G03*
X27968Y43823I-967J-677D01*
G01*
X42968Y42177D02*
G03*
X42968Y40823I-967J-677D01*
G01*
X47968Y45177D02*
G03*
X47968Y43823I-967J-677D01*
G01*
X53467Y43177D02*
G03*
X53467Y41823I-967J-677D01*
G01*
X56467Y38677D02*
G03*
X56467Y37323I-967J-677D01*
G01*
X37968Y32677D02*
G03*
X37968Y31323I-967J-677D01*
G01*
Y37177D02*
G03*
X37968Y35823I-967J-677D01*
G01*
X43519Y30208D02*
G03*
X43519Y28790I-844J-709D01*
G01*
X45481Y32292D02*
G03*
X45481Y33709I844J709D01*
G01*
X49967Y27677D02*
G03*
X49967Y26323I-967J-677D01*
G01*
X56968Y33677D02*
G03*
X56968Y32323I-967J-677D01*
G01*
X32968Y42177D02*
G03*
X32968Y40823I-967J-677D01*
G01*
X25968Y27677D02*
G03*
X25968Y26323I-967J-677D01*
G01*
X51467Y31177D02*
G03*
X51467Y29823I-967J-677D01*
G01*
X40400Y26283D02*
G03*
X40400Y25717I0J-283D01*
G01*
X44218Y22427D02*
G03*
X44218Y21073I-967J-677D01*
G01*
X47467Y24677D02*
G03*
X47467Y23323I-967J-677D01*
G01*
X32150Y29499D02*
G03*
X32150Y29499I-1150J0D01*
G01*
X24467Y31177D02*
G03*
X24467Y29823I-967J-677D01*
G01*
X24968Y34677D02*
G03*
X24968Y33323I-967J-677D01*
G01*
X26500Y19600D02*
Y19800D01*
X26400Y19700D02*
X26450D01*
X26550D01*
X27968Y18323D02*
Y19677D01*
X26550Y19700D02*
X26600D01*
X40500Y16100D02*
Y16300D01*
X40400Y16200D02*
X40450D01*
X40550D01*
X41968Y14823D02*
Y16177D01*
X40550Y16200D02*
X40600D01*
X22550Y23700D02*
X22600D01*
X23967Y22323D02*
Y23677D01*
X22450Y23700D02*
X22550D01*
X22400D02*
X22450D01*
X22500Y23600D02*
Y23800D01*
X54000Y28100D02*
Y28300D01*
X53900Y28200D02*
X53950D01*
X54050D01*
X55468Y26823D02*
Y28177D01*
X54050Y28200D02*
X54100D01*
X36550Y12700D02*
X36600D01*
X37968Y11323D02*
Y12677D01*
X36450Y12700D02*
X36550D01*
X36400D02*
X36450D01*
X36500Y12600D02*
Y12800D01*
X19000Y28100D02*
Y28300D01*
X18900Y28200D02*
X18950D01*
X19050D01*
X20468Y26823D02*
Y28177D01*
X19050Y28200D02*
X19100D01*
X50550Y23700D02*
X50600D01*
X51968Y22323D02*
Y23677D01*
X50450Y23700D02*
X50550D01*
X50400D02*
X50450D01*
X50500Y23600D02*
Y23800D01*
X32500Y16100D02*
Y16300D01*
X32400Y16200D02*
X32450D01*
X32550D01*
X33967Y14823D02*
Y16177D01*
X32550Y16200D02*
X32600D01*
X17550Y33700D02*
X17600D01*
X18967Y32323D02*
Y33677D01*
X17450Y33700D02*
X17550D01*
X17400D02*
X17450D01*
X17500Y33600D02*
Y33800D01*
X31300Y26598D02*
Y27398D01*
X28700Y26598D02*
Y27398D01*
X29268D01*
X30768D02*
X31300D01*
X28700Y26598D02*
X31300D01*
X29268Y27398D02*
X30768D01*
X28500Y26999D02*
X28700D01*
X31300D02*
X31500D01*
X33100Y26699D02*
X33900D01*
X33100Y29299D02*
X33900D01*
Y28731D02*
Y29299D01*
Y26699D02*
Y27231D01*
X33100Y26699D02*
Y29299D01*
X33900Y27231D02*
Y28731D01*
X33501Y29299D02*
Y29499D01*
Y26499D02*
Y26699D01*
X28856Y16100D02*
X31219D01*
X31317D01*
Y18758D01*
X28856Y16100D02*
Y18463D01*
X29250Y17970D02*
Y18364D01*
X49500Y34600D02*
Y34800D01*
X49400Y34700D02*
X49450D01*
X49550D01*
X50967Y33323D02*
Y34677D01*
X49550Y34700D02*
X49600D01*
X30250Y22350D02*
Y22550D01*
X30150Y22450D02*
X30200D01*
X30300D01*
X31718Y21073D02*
Y22427D01*
X30300Y22450D02*
X30350D01*
X40000Y35600D02*
Y35800D01*
X39900Y35700D02*
X39950D01*
X40050D01*
X41467Y34323D02*
Y35677D01*
X40050Y35700D02*
X40100D01*
X39500Y20100D02*
Y20300D01*
X39400Y20200D02*
X39450D01*
X39550D01*
X40967Y18823D02*
Y20177D01*
X39550Y20200D02*
X39600D01*
X27050Y24700D02*
X27100D01*
X28468Y23323D02*
Y24677D01*
X26950Y24700D02*
X27050D01*
X26900D02*
X26950D01*
X27000Y24600D02*
Y24800D01*
X26000Y37100D02*
Y37300D01*
X25900Y37200D02*
X25950D01*
X26050D01*
X27468Y35823D02*
Y37177D01*
X26050Y37200D02*
X26100D01*
X43550Y37700D02*
X43600D01*
X44967Y36323D02*
Y37677D01*
X43450Y37700D02*
X43550D01*
X43400D02*
X43450D01*
X43500Y37600D02*
Y37800D01*
X36550Y17200D02*
X36600D01*
X37968Y15823D02*
Y17177D01*
X36450Y17200D02*
X36550D01*
X36400D02*
X36450D01*
X36500Y17100D02*
Y17300D01*
X29550Y37700D02*
X29600D01*
X30968Y36323D02*
Y37677D01*
X29450Y37700D02*
X29550D01*
X29400D02*
X29450D01*
X29500Y37600D02*
Y37800D01*
X47000Y37100D02*
Y37300D01*
X46900Y37200D02*
X46950D01*
X47050D01*
X48467Y35823D02*
Y37177D01*
X47050Y37200D02*
X47100D01*
X33500Y20100D02*
Y20300D01*
X33400Y20200D02*
X33450D01*
X33550D01*
X34968Y18823D02*
Y20177D01*
X33550Y20200D02*
X33600D01*
X33000Y35600D02*
Y35800D01*
X32900Y35700D02*
X32950D01*
X33050D01*
X34467Y34323D02*
Y35677D01*
X33050Y35700D02*
X33100D01*
X46050Y19700D02*
X46100D01*
X47467Y18323D02*
Y19677D01*
X45950Y19700D02*
X46050D01*
X45900D02*
X45950D01*
X46000Y19600D02*
Y19800D01*
X18050Y38700D02*
X18100D01*
X19468Y37323D02*
Y38677D01*
X17950Y38700D02*
X18050D01*
X17900D02*
X17950D01*
X18000Y38600D02*
Y38800D01*
X21000Y43100D02*
Y43300D01*
X20900Y43200D02*
X20950D01*
X21050D01*
X22468Y41823D02*
Y43177D01*
X21050Y43200D02*
X21100D01*
X26550Y45200D02*
X26600D01*
X27968Y43823D02*
Y45177D01*
X26450Y45200D02*
X26550D01*
X26400D02*
X26450D01*
X26500Y45100D02*
Y45300D01*
X41500Y42100D02*
Y42300D01*
X41400Y42200D02*
X41450D01*
X41550D01*
X42968Y40823D02*
Y42177D01*
X41550Y42200D02*
X41600D01*
X46550Y45200D02*
X46600D01*
X47968Y43823D02*
Y45177D01*
X46450Y45200D02*
X46550D01*
X46400D02*
X46450D01*
X46500Y45100D02*
Y45300D01*
X37000Y22100D02*
Y22900D01*
X35700D02*
X37300D01*
Y22100D02*
Y22900D01*
X35700Y22100D02*
X37300D01*
X35700D02*
Y22900D01*
X37300Y22500D02*
X37700D01*
X35400D02*
X35700D01*
X37700D02*
X37800D01*
X35300D02*
X35400D01*
X52000Y43100D02*
Y43300D01*
X51900Y43200D02*
X51950D01*
X52050D01*
X53467Y41823D02*
Y43177D01*
X52050Y43200D02*
X52100D01*
X55000Y38600D02*
Y38800D01*
X54900Y38700D02*
X54950D01*
X55050D01*
X56467Y37323D02*
Y38677D01*
X55050Y38700D02*
X55100D01*
X36550Y32700D02*
X36600D01*
X37968Y31323D02*
Y32677D01*
X36450Y32700D02*
X36550D01*
X36400D02*
X36450D01*
X36500Y32600D02*
Y32800D01*
X36550Y37200D02*
X36600D01*
X37968Y35823D02*
Y37177D01*
X36450Y37200D02*
X36550D01*
X36400D02*
X36450D01*
X36500Y37100D02*
Y37300D01*
X37200Y29102D02*
Y29902D01*
X39800Y29102D02*
Y29902D01*
X39232Y29102D02*
X39800D01*
X37200D02*
X37732D01*
X37200Y29902D02*
X39800D01*
X37732Y29102D02*
X39232D01*
X39800Y29501D02*
X40000D01*
X37000D02*
X37200D01*
X43519Y28790D02*
Y30208D01*
X45481Y32292D02*
Y33709D01*
X40200Y32102D02*
Y32902D01*
X42800Y32102D02*
Y32902D01*
X42232Y32102D02*
X42800D01*
X40200D02*
X40732D01*
X40200Y32902D02*
X42800D01*
X40732Y32102D02*
X42232D01*
X42800Y32501D02*
X43000D01*
X40000D02*
X40200D01*
X48500Y27600D02*
Y27800D01*
X48400Y27700D02*
X48450D01*
X48550D01*
X49967Y26323D02*
Y27677D01*
X48550Y27700D02*
X48600D01*
X55550Y33700D02*
X55600D01*
X56968Y32323D02*
Y33677D01*
X55450Y33700D02*
X55550D01*
X55400D02*
X55450D01*
X55500Y33600D02*
Y33800D01*
X31500Y42100D02*
Y42300D01*
X31400Y42200D02*
X31450D01*
X31550D01*
X32968Y40823D02*
Y42177D01*
X31550Y42200D02*
X31600D01*
X24500Y27600D02*
Y27800D01*
X24400Y27700D02*
X24450D01*
X24550D01*
X25968Y26323D02*
Y27677D01*
X24550Y27700D02*
X24600D01*
X50050Y31200D02*
X50100D01*
X51467Y29823D02*
Y31177D01*
X49950Y31200D02*
X50050D01*
X49900D02*
X49950D01*
X50000Y31100D02*
Y31300D01*
X36500Y27200D02*
X40400D01*
X36500Y24800D02*
Y27200D01*
Y24800D02*
X40400D01*
Y25700D01*
Y26300D02*
Y27200D01*
X42800Y22450D02*
X42850D01*
X44218Y21073D02*
Y22427D01*
X42700Y22450D02*
X42800D01*
X42650D02*
X42700D01*
X42750Y22350D02*
Y22550D01*
X46050Y24700D02*
X46100D01*
X47467Y23323D02*
Y24677D01*
X45950Y24700D02*
X46050D01*
X45900D02*
X45950D01*
X46000Y24600D02*
Y24800D01*
X44999Y26500D02*
Y26700D01*
Y29300D02*
Y29500D01*
X45398Y27232D02*
Y28732D01*
X44598Y26700D02*
Y29300D01*
X45398Y26700D02*
Y27232D01*
Y28732D02*
Y29300D01*
X44598D02*
X45398D01*
X44598Y26700D02*
X45398D01*
X31700Y29899D02*
Y30099D01*
X31600Y29999D02*
X31800D01*
X23050Y31200D02*
X23100D01*
X24467Y29823D02*
Y31177D01*
X22950Y31200D02*
X23050D01*
X22900D02*
X22950D01*
X23000Y31100D02*
Y31300D01*
X23550Y34700D02*
X23600D01*
X24968Y33323D02*
Y34677D01*
X23450Y34700D02*
X23550D01*
X23400D02*
X23450D01*
X23500Y34600D02*
Y34800D01*
X30144Y16305D02*
X29750D01*
Y16502D01*
X29816Y16567D01*
X30078D01*
X30144Y16502D01*
Y16305D01*
X30078Y16961D02*
X30144Y16895D01*
Y16764D01*
X30078Y16699D01*
X30012D01*
X29947Y16764D01*
Y16895D01*
X29881Y16961D01*
X29816D01*
X29750Y16895D01*
Y16764D01*
X29816Y16699D01*
X29947Y17092D02*
Y17355D01*
X29750Y17748D02*
Y17486D01*
X30012Y17748D01*
X30078D01*
X30144Y17683D01*
Y17551D01*
X30078Y17486D01*
X29750Y17879D02*
Y18011D01*
Y17945D01*
X30144D01*
X30078Y17879D01*
Y18207D02*
X30144Y18273D01*
Y18404D01*
X30078Y18470D01*
X30012D01*
X29947Y18404D01*
Y18339D01*
Y18404D01*
X29881Y18470D01*
X29816D01*
X29750Y18404D01*
Y18273D01*
X29816Y18207D01*
X43250Y31600D02*
Y31200D01*
X43050Y31000D01*
X42850Y31200D01*
Y31600D01*
X42650D02*
X42250D01*
X42450D01*
Y31000D01*
X41651D02*
X42050D01*
X41651Y31400D01*
Y31500D01*
X41750Y31600D01*
X41950D01*
X42050Y31500D01*
X46000Y34922D02*
Y34522D01*
X45800Y34323D01*
X45600Y34522D01*
Y34922D01*
X45400D02*
X45000D01*
X45200D01*
Y34323D01*
X44800D02*
X44600D01*
X44700D01*
Y34922D01*
X44800Y34822D01*
X36250Y23850D02*
Y23450D01*
X36050Y23250D01*
X35850Y23450D01*
Y23850D01*
X35650D02*
Y23250D01*
X35350D01*
X35250Y23350D01*
Y23750D01*
X35350Y23850D01*
X35650D01*
X35050Y23250D02*
X34850D01*
X34950D01*
Y23850D01*
X35050Y23750D01*
X42500Y27597D02*
Y27098D01*
X42400Y26998D01*
X42200D01*
X42100Y27098D01*
Y27597D01*
X41900Y26998D02*
X41700D01*
X41800D01*
Y27597D01*
X41900Y27497D01*
X46000Y30750D02*
Y31350D01*
X45700D01*
X45600Y31250D01*
Y31050D01*
X45700Y30950D01*
X46000D01*
X45800D02*
X45600Y30750D01*
X45000Y31350D02*
X45400D01*
Y31050D01*
X45200Y31150D01*
X45100D01*
X45000Y31050D01*
Y30850D01*
X45100Y30750D01*
X45300D01*
X45400Y30850D01*
X43750Y33500D02*
Y34100D01*
X43450D01*
X43350Y34000D01*
Y33800D01*
X43450Y33700D01*
X43750D01*
X43550D02*
X43350Y33500D01*
X42850D02*
Y34100D01*
X43150Y33800D01*
X42750D01*
X29000Y28000D02*
Y28600D01*
X28700D01*
X28600Y28500D01*
Y28300D01*
X28700Y28200D01*
X29000D01*
X28800D02*
X28600Y28000D01*
X28400Y28500D02*
X28300Y28600D01*
X28100D01*
X28000Y28500D01*
Y28400D01*
X28100Y28300D01*
X28200D01*
X28100D01*
X28000Y28200D01*
Y28100D01*
X28100Y28000D01*
X28300D01*
X28400Y28100D01*
X40500Y30250D02*
Y30850D01*
X40200D01*
X40100Y30750D01*
Y30550D01*
X40200Y30450D01*
X40500D01*
X40300D02*
X40100Y30250D01*
X39500D02*
X39900D01*
X39500Y30650D01*
Y30750D01*
X39600Y30850D01*
X39800D01*
X39900Y30750D01*
X35300Y30650D02*
Y31250D01*
X35000D01*
X34900Y31150D01*
Y30950D01*
X35000Y30850D01*
X35300D01*
X35100D02*
X34900Y30650D01*
X34700D02*
X34500D01*
X34600D01*
Y31250D01*
X34700Y31150D01*
X32450Y19250D02*
Y19850D01*
X32150D01*
X32050Y19750D01*
Y19550D01*
X32150Y19450D01*
X32450D01*
X31850Y19250D02*
X31650D01*
X31750D01*
Y19850D01*
X31850Y19750D01*
X38250Y34100D02*
Y33500D01*
X37850D01*
X37250Y34100D02*
X37650D01*
Y33500D01*
X37250D01*
X37650Y33800D02*
X37450D01*
X37050Y34100D02*
Y33500D01*
X36750D01*
X36651Y33600D01*
Y34000D01*
X36750Y34100D01*
X37050D01*
X36151Y33500D02*
Y34100D01*
X36451Y33800D01*
X36051D01*
X35851Y34000D02*
X35751Y34100D01*
X35551D01*
X35451Y34000D01*
Y33600D01*
X35551Y33500D01*
X35751D01*
X35851Y33600D01*
Y34000D01*
X53140Y36150D02*
Y35550D01*
X52740D01*
X52140Y36150D02*
X52540D01*
Y35550D01*
X52140D01*
X52540Y35850D02*
X52340D01*
X51940Y36150D02*
Y35550D01*
X51640D01*
X51541Y35650D01*
Y36050D01*
X51640Y36150D01*
X51940D01*
X51341Y36050D02*
X51241Y36150D01*
X51041D01*
X50941Y36050D01*
Y35950D01*
X51041Y35850D01*
X51141D01*
X51041D01*
X50941Y35750D01*
Y35650D01*
X51041Y35550D01*
X51241D01*
X51341Y35650D01*
X50341Y36150D02*
X50541Y36050D01*
X50741Y35850D01*
Y35650D01*
X50641Y35550D01*
X50441D01*
X50341Y35650D01*
Y35750D01*
X50441Y35850D01*
X50741D01*
X43250Y23850D02*
Y23250D01*
X42850D01*
X42250Y23850D02*
X42650D01*
Y23250D01*
X42250D01*
X42650Y23550D02*
X42450D01*
X42050Y23850D02*
Y23250D01*
X41750D01*
X41651Y23350D01*
Y23750D01*
X41750Y23850D01*
X42050D01*
X41451Y23750D02*
X41351Y23850D01*
X41151D01*
X41051Y23750D01*
Y23650D01*
X41151Y23550D01*
X41251D01*
X41151D01*
X41051Y23450D01*
Y23350D01*
X41151Y23250D01*
X41351D01*
X41451Y23350D01*
X40451Y23250D02*
X40851D01*
X40451Y23650D01*
Y23750D01*
X40551Y23850D01*
X40751D01*
X40851Y23750D01*
X32750Y23850D02*
Y23250D01*
X32350D01*
X31750Y23850D02*
X32150D01*
Y23250D01*
X31750D01*
X32150Y23550D02*
X31950D01*
X31550Y23850D02*
Y23250D01*
X31250D01*
X31151Y23350D01*
Y23750D01*
X31250Y23850D01*
X31550D01*
X30551Y23250D02*
X30951D01*
X30551Y23650D01*
Y23750D01*
X30651Y23850D01*
X30851D01*
X30951Y23750D01*
X30351D02*
X30251Y23850D01*
X30051D01*
X29951Y23750D01*
Y23650D01*
X30051Y23550D01*
X29951Y23450D01*
Y23350D01*
X30051Y23250D01*
X30251D01*
X30351Y23350D01*
Y23450D01*
X30251Y23550D01*
X30351Y23650D01*
Y23750D01*
X30251Y23550D02*
X30051D01*
X24500Y36100D02*
Y35500D01*
X24100D01*
X23500Y36100D02*
X23900D01*
Y35500D01*
X23500D01*
X23900Y35800D02*
X23700D01*
X23300Y36100D02*
Y35500D01*
X23000D01*
X22901Y35600D01*
Y36000D01*
X23000Y36100D01*
X23300D01*
X22301Y35500D02*
X22701D01*
X22301Y35900D01*
Y36000D01*
X22401Y36100D01*
X22601D01*
X22701Y36000D01*
X21801Y35500D02*
Y36100D01*
X22101Y35800D01*
X21701D01*
X42250Y37100D02*
Y36500D01*
X41850D01*
X41250Y37100D02*
X41650D01*
Y36500D01*
X41250D01*
X41650Y36800D02*
X41450D01*
X41050Y37100D02*
Y36500D01*
X40750D01*
X40651Y36600D01*
Y37000D01*
X40750Y37100D01*
X41050D01*
X40451Y37000D02*
X40351Y37100D01*
X40151D01*
X40051Y37000D01*
Y36900D01*
X40151Y36800D01*
X40251D01*
X40151D01*
X40051Y36700D01*
Y36600D01*
X40151Y36500D01*
X40351D01*
X40451Y36600D01*
X39851D02*
X39751Y36500D01*
X39551D01*
X39451Y36600D01*
Y37000D01*
X39551Y37100D01*
X39751D01*
X39851Y37000D01*
Y36900D01*
X39751Y36800D01*
X39451D01*
X50750Y32600D02*
Y32000D01*
X50350D01*
X49750Y32600D02*
X50150D01*
Y32000D01*
X49750D01*
X50150Y32300D02*
X49950D01*
X49550Y32600D02*
Y32000D01*
X49250D01*
X49151Y32100D01*
Y32500D01*
X49250Y32600D01*
X49550D01*
X48951Y32500D02*
X48851Y32600D01*
X48651D01*
X48551Y32500D01*
Y32400D01*
X48651Y32300D01*
X48751D01*
X48651D01*
X48551Y32200D01*
Y32100D01*
X48651Y32000D01*
X48851D01*
X48951Y32100D01*
X47951Y32600D02*
X48351D01*
Y32300D01*
X48151Y32400D01*
X48051D01*
X47951Y32300D01*
Y32100D01*
X48051Y32000D01*
X48251D01*
X48351Y32100D01*
X41500Y21600D02*
Y21000D01*
X41100D01*
X40500Y21600D02*
X40900D01*
Y21000D01*
X40500D01*
X40900Y21300D02*
X40700D01*
X40300Y21600D02*
Y21000D01*
X40000D01*
X39901Y21100D01*
Y21500D01*
X40000Y21600D01*
X40300D01*
X39701Y21500D02*
X39601Y21600D01*
X39401D01*
X39301Y21500D01*
Y21400D01*
X39401Y21300D01*
X39501D01*
X39401D01*
X39301Y21200D01*
Y21100D01*
X39401Y21000D01*
X39601D01*
X39701Y21100D01*
X39101Y21000D02*
X38901D01*
X39001D01*
Y21600D01*
X39101Y21500D01*
X30750Y25850D02*
Y25250D01*
X30350D01*
X29750Y25850D02*
X30150D01*
Y25250D01*
X29750D01*
X30150Y25550D02*
X29950D01*
X29550Y25850D02*
Y25250D01*
X29250D01*
X29151Y25350D01*
Y25750D01*
X29250Y25850D01*
X29550D01*
X28551Y25250D02*
X28951D01*
X28551Y25650D01*
Y25750D01*
X28651Y25850D01*
X28851D01*
X28951Y25750D01*
X28351Y25850D02*
X27951D01*
Y25750D01*
X28351Y25350D01*
Y25250D01*
X28000Y38600D02*
Y38000D01*
X27600D01*
X27000Y38600D02*
X27400D01*
Y38000D01*
X27000D01*
X27400Y38300D02*
X27200D01*
X26800Y38600D02*
Y38000D01*
X26500D01*
X26401Y38100D01*
Y38500D01*
X26500Y38600D01*
X26800D01*
X25801Y38000D02*
X26201D01*
X25801Y38400D01*
Y38500D01*
X25901Y38600D01*
X26101D01*
X26201Y38500D01*
X25601D02*
X25501Y38600D01*
X25301D01*
X25201Y38500D01*
Y38400D01*
X25301Y38300D01*
X25401D01*
X25301D01*
X25201Y38200D01*
Y38100D01*
X25301Y38000D01*
X25501D01*
X25601Y38100D01*
X46000Y39100D02*
Y38500D01*
X45600D01*
X45000Y39100D02*
X45400D01*
Y38500D01*
X45000D01*
X45400Y38800D02*
X45200D01*
X44800Y39100D02*
Y38500D01*
X44500D01*
X44401Y38600D01*
Y39000D01*
X44500Y39100D01*
X44800D01*
X44201Y39000D02*
X44101Y39100D01*
X43901D01*
X43801Y39000D01*
Y38900D01*
X43901Y38800D01*
X44001D01*
X43901D01*
X43801Y38700D01*
Y38600D01*
X43901Y38500D01*
X44101D01*
X44201Y38600D01*
X43601Y39000D02*
X43501Y39100D01*
X43301D01*
X43201Y39000D01*
Y38900D01*
X43301Y38800D01*
X43201Y38700D01*
Y38600D01*
X43301Y38500D01*
X43501D01*
X43601Y38600D01*
Y38700D01*
X43501Y38800D01*
X43601Y38900D01*
Y39000D01*
X43501Y38800D02*
X43301D01*
X49500Y29100D02*
Y28500D01*
X49100D01*
X48500Y29100D02*
X48900D01*
Y28500D01*
X48500D01*
X48900Y28800D02*
X48700D01*
X48300Y29100D02*
Y28500D01*
X48000D01*
X47901Y28600D01*
Y29000D01*
X48000Y29100D01*
X48300D01*
X47701Y29000D02*
X47601Y29100D01*
X47401D01*
X47301Y29000D01*
Y28900D01*
X47401Y28800D01*
X47501D01*
X47401D01*
X47301Y28700D01*
Y28600D01*
X47401Y28500D01*
X47601D01*
X47701Y28600D01*
X46801Y28500D02*
Y29100D01*
X47101Y28800D01*
X46701D01*
X38500Y18600D02*
Y18000D01*
X38100D01*
X37500Y18600D02*
X37900D01*
Y18000D01*
X37500D01*
X37900Y18300D02*
X37700D01*
X37300Y18600D02*
Y18000D01*
X37000D01*
X36901Y18100D01*
Y18500D01*
X37000Y18600D01*
X37300D01*
X36701Y18500D02*
X36601Y18600D01*
X36401D01*
X36301Y18500D01*
Y18400D01*
X36401Y18300D01*
X36501D01*
X36401D01*
X36301Y18200D01*
Y18100D01*
X36401Y18000D01*
X36601D01*
X36701Y18100D01*
X36101Y18500D02*
X36001Y18600D01*
X35801D01*
X35701Y18500D01*
Y18100D01*
X35801Y18000D01*
X36001D01*
X36101Y18100D01*
Y18500D01*
X26500Y29100D02*
Y28500D01*
X26100D01*
X25500Y29100D02*
X25900D01*
Y28500D01*
X25500D01*
X25900Y28800D02*
X25700D01*
X25300Y29100D02*
Y28500D01*
X25000D01*
X24901Y28600D01*
Y29000D01*
X25000Y29100D01*
X25300D01*
X24301Y28500D02*
X24701D01*
X24301Y28900D01*
Y29000D01*
X24401Y29100D01*
X24601D01*
X24701Y29000D01*
X23701Y29100D02*
X23901Y29000D01*
X24101Y28800D01*
Y28600D01*
X24001Y28500D01*
X23801D01*
X23701Y28600D01*
Y28700D01*
X23801Y28800D01*
X24101D01*
X33140Y39150D02*
Y38550D01*
X32740D01*
X32140Y39150D02*
X32540D01*
Y38550D01*
X32140D01*
X32540Y38850D02*
X32340D01*
X31940Y39150D02*
Y38550D01*
X31640D01*
X31541Y38650D01*
Y39050D01*
X31640Y39150D01*
X31940D01*
X30941Y38550D02*
X31341D01*
X30941Y38950D01*
Y39050D01*
X31041Y39150D01*
X31241D01*
X31341Y39050D01*
X30341Y38550D02*
X30741D01*
X30341Y38950D01*
Y39050D01*
X30441Y39150D01*
X30641D01*
X30741Y39050D01*
X50500Y38600D02*
Y38000D01*
X50100D01*
X49500Y38600D02*
X49900D01*
Y38000D01*
X49500D01*
X49900Y38300D02*
X49700D01*
X49300Y38600D02*
Y38000D01*
X49000D01*
X48901Y38100D01*
Y38500D01*
X49000Y38600D01*
X49300D01*
X48701Y38500D02*
X48601Y38600D01*
X48401D01*
X48301Y38500D01*
Y38400D01*
X48401Y38300D01*
X48501D01*
X48401D01*
X48301Y38200D01*
Y38100D01*
X48401Y38000D01*
X48601D01*
X48701Y38100D01*
X48101Y38600D02*
X47701D01*
Y38500D01*
X48101Y38100D01*
Y38000D01*
X45000Y25350D02*
Y24750D01*
X44600D01*
X44000Y25350D02*
X44400D01*
Y24750D01*
X44000D01*
X44400Y25050D02*
X44200D01*
X43800Y25350D02*
Y24750D01*
X43500D01*
X43401Y24850D01*
Y25250D01*
X43500Y25350D01*
X43800D01*
X43201Y25250D02*
X43101Y25350D01*
X42901D01*
X42801Y25250D01*
Y25150D01*
X42901Y25050D01*
X43001D01*
X42901D01*
X42801Y24950D01*
Y24850D01*
X42901Y24750D01*
X43101D01*
X43201Y24850D01*
X42601Y25250D02*
X42501Y25350D01*
X42301D01*
X42201Y25250D01*
Y25150D01*
X42301Y25050D01*
X42401D01*
X42301D01*
X42201Y24950D01*
Y24850D01*
X42301Y24750D01*
X42501D01*
X42601Y24850D01*
X35500Y21600D02*
Y21000D01*
X35100D01*
X34500Y21600D02*
X34900D01*
Y21000D01*
X34500D01*
X34900Y21300D02*
X34700D01*
X34300Y21600D02*
Y21000D01*
X34000D01*
X33901Y21100D01*
Y21500D01*
X34000Y21600D01*
X34300D01*
X33301Y21000D02*
X33701D01*
X33301Y21400D01*
Y21500D01*
X33401Y21600D01*
X33601D01*
X33701Y21500D01*
X33101Y21100D02*
X33001Y21000D01*
X32801D01*
X32701Y21100D01*
Y21500D01*
X32801Y21600D01*
X33001D01*
X33101Y21500D01*
Y21400D01*
X33001Y21300D01*
X32701D01*
X23000Y32600D02*
Y32000D01*
X22600D01*
X22000Y32600D02*
X22400D01*
Y32000D01*
X22000D01*
X22400Y32300D02*
X22200D01*
X21800Y32600D02*
Y32000D01*
X21500D01*
X21401Y32100D01*
Y32500D01*
X21500Y32600D01*
X21800D01*
X20801Y32000D02*
X21201D01*
X20801Y32400D01*
Y32500D01*
X20901Y32600D01*
X21101D01*
X21201Y32500D01*
X20201Y32600D02*
X20601D01*
Y32300D01*
X20401Y32400D01*
X20301D01*
X20201Y32300D01*
Y32100D01*
X20301Y32000D01*
X20501D01*
X20601Y32100D01*
X35000Y37100D02*
Y36500D01*
X34600D01*
X34000Y37100D02*
X34400D01*
Y36500D01*
X34000D01*
X34400Y36800D02*
X34200D01*
X33800Y37100D02*
Y36500D01*
X33500D01*
X33401Y36600D01*
Y37000D01*
X33500Y37100D01*
X33800D01*
X32801Y36500D02*
X33201D01*
X32801Y36900D01*
Y37000D01*
X32901Y37100D01*
X33101D01*
X33201Y37000D01*
X32601Y36500D02*
X32401D01*
X32501D01*
Y37100D01*
X32601Y37000D01*
X38250Y35100D02*
Y34500D01*
X37850D01*
X37250Y35100D02*
X37650D01*
Y34500D01*
X37250D01*
X37650Y34800D02*
X37450D01*
X37050Y35100D02*
Y34500D01*
X36750D01*
X36651Y34600D01*
Y35000D01*
X36750Y35100D01*
X37050D01*
X36051Y34500D02*
X36451D01*
X36051Y34900D01*
Y35000D01*
X36151Y35100D01*
X36351D01*
X36451Y35000D01*
X35851D02*
X35751Y35100D01*
X35551D01*
X35451Y35000D01*
Y34600D01*
X35551Y34500D01*
X35751D01*
X35851Y34600D01*
Y35000D01*
X54750Y40100D02*
Y39500D01*
X54350D01*
X53750Y40100D02*
X54150D01*
Y39500D01*
X53750D01*
X54150Y39800D02*
X53950D01*
X53550Y40100D02*
Y39500D01*
X53250D01*
X53151Y39600D01*
Y40000D01*
X53250Y40100D01*
X53550D01*
X52951Y39500D02*
X52751D01*
X52851D01*
Y40100D01*
X52951Y40000D01*
X52051Y40100D02*
X52251Y40000D01*
X52451Y39800D01*
Y39600D01*
X52351Y39500D01*
X52151D01*
X52051Y39600D01*
Y39700D01*
X52151Y39800D01*
X52451D01*
X49000Y21100D02*
Y20500D01*
X48600D01*
X48000Y21100D02*
X48400D01*
Y20500D01*
X48000D01*
X48400Y20800D02*
X48200D01*
X47800Y21100D02*
Y20500D01*
X47500D01*
X47401Y20600D01*
Y21000D01*
X47500Y21100D01*
X47800D01*
X47201Y20500D02*
X47001D01*
X47101D01*
Y21100D01*
X47201Y21000D01*
X46301Y20500D02*
X46701D01*
X46301Y20900D01*
Y21000D01*
X46401Y21100D01*
X46601D01*
X46701Y21000D01*
X28750Y21100D02*
Y20500D01*
X28350D01*
X27750Y21100D02*
X28150D01*
Y20500D01*
X27750D01*
X28150Y20800D02*
X27950D01*
X27550Y21100D02*
Y20500D01*
X27250D01*
X27151Y20600D01*
Y21000D01*
X27250Y21100D01*
X27550D01*
X26951Y21000D02*
X26851Y21100D01*
X26651D01*
X26551Y21000D01*
Y20900D01*
X26651Y20800D01*
X26551Y20700D01*
Y20600D01*
X26651Y20500D01*
X26851D01*
X26951Y20600D01*
Y20700D01*
X26851Y20800D01*
X26951Y20900D01*
Y21000D01*
X26851Y20800D02*
X26651D01*
X20250Y40100D02*
Y39500D01*
X19850D01*
X19250Y40100D02*
X19650D01*
Y39500D01*
X19250D01*
X19650Y39800D02*
X19450D01*
X19050Y40100D02*
Y39500D01*
X18750D01*
X18651Y39600D01*
Y40000D01*
X18750Y40100D01*
X19050D01*
X18151Y39500D02*
Y40100D01*
X18451Y39800D01*
X18051D01*
X44000Y43600D02*
Y43000D01*
X43600D01*
X43000Y43600D02*
X43400D01*
Y43000D01*
X43000D01*
X43400Y43300D02*
X43200D01*
X42800Y43600D02*
Y43000D01*
X42500D01*
X42401Y43100D01*
Y43500D01*
X42500Y43600D01*
X42800D01*
X42201Y43000D02*
X42001D01*
X42101D01*
Y43600D01*
X42201Y43500D01*
X41701Y43100D02*
X41601Y43000D01*
X41401D01*
X41301Y43100D01*
Y43500D01*
X41401Y43600D01*
X41601D01*
X41701Y43500D01*
Y43400D01*
X41601Y43300D01*
X41301D01*
X57000Y35100D02*
Y34500D01*
X56600D01*
X56000Y35100D02*
X56400D01*
Y34500D01*
X56000D01*
X56400Y34800D02*
X56200D01*
X55800Y35100D02*
Y34500D01*
X55500D01*
X55401Y34600D01*
Y35000D01*
X55500Y35100D01*
X55800D01*
X55201Y34500D02*
X55001D01*
X55101D01*
Y35100D01*
X55201Y35000D01*
X54301Y35100D02*
X54701D01*
Y34800D01*
X54501Y34900D01*
X54401D01*
X54301Y34800D01*
Y34600D01*
X54401Y34500D01*
X54601D01*
X54701Y34600D01*
X43850Y17650D02*
Y17050D01*
X43450D01*
X42850Y17650D02*
X43250D01*
Y17050D01*
X42850D01*
X43250Y17350D02*
X43050D01*
X42650Y17650D02*
Y17050D01*
X42350D01*
X42251Y17150D01*
Y17550D01*
X42350Y17650D01*
X42650D01*
X42051Y17050D02*
X41851D01*
X41951D01*
Y17650D01*
X42051Y17550D01*
X41551Y17050D02*
X41351D01*
X41451D01*
Y17650D01*
X41551Y17550D01*
X25500Y24850D02*
Y24250D01*
X25100D01*
X24500Y24850D02*
X24900D01*
Y24250D01*
X24500D01*
X24900Y24550D02*
X24700D01*
X24300Y24850D02*
Y24250D01*
X24000D01*
X23901Y24350D01*
Y24750D01*
X24000Y24850D01*
X24300D01*
X23701D02*
X23301D01*
Y24750D01*
X23701Y24350D01*
Y24250D01*
X22750Y40850D02*
Y40250D01*
X22350D01*
X21750Y40850D02*
X22150D01*
Y40250D01*
X21750D01*
X22150Y40550D02*
X21950D01*
X21550Y40850D02*
Y40250D01*
X21250D01*
X21151Y40350D01*
Y40750D01*
X21250Y40850D01*
X21550D01*
X20951Y40750D02*
X20851Y40850D01*
X20651D01*
X20551Y40750D01*
Y40650D01*
X20651Y40550D01*
X20751D01*
X20651D01*
X20551Y40450D01*
Y40350D01*
X20651Y40250D01*
X20851D01*
X20951Y40350D01*
X47500Y42850D02*
Y42250D01*
X47100D01*
X46500Y42850D02*
X46900D01*
Y42250D01*
X46500D01*
X46900Y42550D02*
X46700D01*
X46300Y42850D02*
Y42250D01*
X46000D01*
X45901Y42350D01*
Y42750D01*
X46000Y42850D01*
X46300D01*
X45701Y42250D02*
X45501D01*
X45601D01*
Y42850D01*
X45701Y42750D01*
X45201D02*
X45101Y42850D01*
X44901D01*
X44801Y42750D01*
Y42650D01*
X44901Y42550D01*
X44801Y42450D01*
Y42350D01*
X44901Y42250D01*
X45101D01*
X45201Y42350D01*
Y42450D01*
X45101Y42550D01*
X45201Y42650D01*
Y42750D01*
X45101Y42550D02*
X44901D01*
X56250Y29600D02*
Y29000D01*
X55850D01*
X55250Y29600D02*
X55650D01*
Y29000D01*
X55250D01*
X55650Y29300D02*
X55450D01*
X55050Y29600D02*
Y29000D01*
X54750D01*
X54651Y29100D01*
Y29500D01*
X54750Y29600D01*
X55050D01*
X54451Y29000D02*
X54251D01*
X54351D01*
Y29600D01*
X54451Y29500D01*
X53651Y29000D02*
Y29600D01*
X53951Y29300D01*
X53551D01*
X38750Y14100D02*
Y13500D01*
X38350D01*
X37750Y14100D02*
X38150D01*
Y13500D01*
X37750D01*
X38150Y13800D02*
X37950D01*
X37550Y14100D02*
Y13500D01*
X37250D01*
X37151Y13600D01*
Y14000D01*
X37250Y14100D01*
X37550D01*
X36951Y13500D02*
X36751D01*
X36851D01*
Y14100D01*
X36951Y14000D01*
X36451D02*
X36351Y14100D01*
X36151D01*
X36051Y14000D01*
Y13600D01*
X36151Y13500D01*
X36351D01*
X36451Y13600D01*
Y14000D01*
X20750Y29600D02*
Y29000D01*
X20350D01*
X19750Y29600D02*
X20150D01*
Y29000D01*
X19750D01*
X20150Y29300D02*
X19950D01*
X19550Y29600D02*
Y29000D01*
X19250D01*
X19151Y29100D01*
Y29500D01*
X19250Y29600D01*
X19550D01*
X18551D02*
X18751Y29500D01*
X18951Y29300D01*
Y29100D01*
X18851Y29000D01*
X18651D01*
X18551Y29100D01*
Y29200D01*
X18651Y29300D01*
X18951D01*
X27250Y42850D02*
Y42250D01*
X26850D01*
X26250Y42850D02*
X26650D01*
Y42250D01*
X26250D01*
X26650Y42550D02*
X26450D01*
X26050Y42850D02*
Y42250D01*
X25750D01*
X25651Y42350D01*
Y42750D01*
X25750Y42850D01*
X26050D01*
X25051Y42250D02*
X25451D01*
X25051Y42650D01*
Y42750D01*
X25151Y42850D01*
X25351D01*
X25451Y42750D01*
X51500Y41350D02*
Y40750D01*
X51100D01*
X50500Y41350D02*
X50900D01*
Y40750D01*
X50500D01*
X50900Y41050D02*
X50700D01*
X50300Y41350D02*
Y40750D01*
X50000D01*
X49901Y40850D01*
Y41250D01*
X50000Y41350D01*
X50300D01*
X49701Y40750D02*
X49501D01*
X49601D01*
Y41350D01*
X49701Y41250D01*
X49201Y41350D02*
X48801D01*
Y41250D01*
X49201Y40850D01*
Y40750D01*
X54040Y25150D02*
Y24550D01*
X53640D01*
X53040Y25150D02*
X53440D01*
Y24550D01*
X53040D01*
X53440Y24850D02*
X53240D01*
X52840Y25150D02*
Y24550D01*
X52540D01*
X52441Y24650D01*
Y25050D01*
X52540Y25150D01*
X52840D01*
X52241Y24550D02*
X52041D01*
X52141D01*
Y25150D01*
X52241Y25050D01*
X51741D02*
X51641Y25150D01*
X51441D01*
X51341Y25050D01*
Y24950D01*
X51441Y24850D01*
X51541D01*
X51441D01*
X51341Y24750D01*
Y24650D01*
X51441Y24550D01*
X51641D01*
X51741Y24650D01*
X34500Y17600D02*
Y17000D01*
X34100D01*
X33500Y17600D02*
X33900D01*
Y17000D01*
X33500D01*
X33900Y17300D02*
X33700D01*
X33300Y17600D02*
Y17000D01*
X33000D01*
X32901Y17100D01*
Y17500D01*
X33000Y17600D01*
X33300D01*
X32701Y17100D02*
X32601Y17000D01*
X32401D01*
X32301Y17100D01*
Y17500D01*
X32401Y17600D01*
X32601D01*
X32701Y17500D01*
Y17400D01*
X32601Y17300D01*
X32301D01*
X20000Y35100D02*
Y34500D01*
X19600D01*
X19000Y35100D02*
X19400D01*
Y34500D01*
X19000D01*
X19400Y34800D02*
X19200D01*
X18800Y35100D02*
Y34500D01*
X18500D01*
X18401Y34600D01*
Y35000D01*
X18500Y35100D01*
X18800D01*
X17801D02*
X18201D01*
Y34800D01*
X18001Y34900D01*
X17901D01*
X17801Y34800D01*
Y34600D01*
X17901Y34500D01*
X18101D01*
X18201Y34600D01*
X32250Y43600D02*
Y43000D01*
X31850D01*
X31250Y43600D02*
X31650D01*
Y43000D01*
X31250D01*
X31650Y43300D02*
X31450D01*
X31050Y43600D02*
Y43000D01*
X30750D01*
X30651Y43100D01*
Y43500D01*
X30750Y43600D01*
X31050D01*
X30451Y43000D02*
X30251D01*
X30351D01*
Y43600D01*
X30451Y43500D01*
X29100Y30500D02*
X29200Y30600D01*
X29400D01*
X29500Y30500D01*
Y30100D01*
X29400Y30000D01*
X29200D01*
X29100Y30100D01*
X28900Y30000D02*
X28700D01*
X28800D01*
Y30600D01*
X28900Y30500D01*
D30*
X39750Y26287D02*
Y25500D01*
X39356D01*
X39225Y25631D01*
Y26156D01*
X39356Y26287D01*
X39750D01*
X38963D02*
X38700D01*
X38832D01*
Y25500D01*
X38963D01*
X38700D01*
X38307D02*
Y26287D01*
X37913D01*
X37782Y26156D01*
Y25894D01*
X37913Y25762D01*
X38307D01*
X37520Y26156D02*
X37389Y26287D01*
X37126D01*
X36995Y26156D01*
Y26025D01*
X37126Y25894D01*
X36995Y25762D01*
Y25631D01*
X37126Y25500D01*
X37389D01*
X37520Y25631D01*
Y25762D01*
X37389Y25894D01*
X37520Y26025D01*
Y26156D01*
X37389Y25894D02*
X37126D01*
M02*
