G04*
G04 #@! TF.GenerationSoftware,Altium Limited,Altium Designer,18.1.9 (240)*
G04*
G04 Layer_Color=1930808*
%FSLAX24Y24*%
%MOIN*%
G70*
G01*
G75*
%ADD31C,0.0787*%
D31*
X23219Y46338D02*
X23479Y46436D01*
X22962Y46233D02*
X23219Y46338D01*
X22710Y46120D02*
X22962Y46233D01*
X22461Y45999D02*
X22710Y46120D01*
X22217Y45871D02*
X22461Y45999D01*
X21977Y45736D02*
X22217Y45871D01*
X21741Y45594D02*
X21977Y45736D01*
X21509Y45445D02*
X21741Y45594D01*
X21281Y45290D02*
X21509Y45445D01*
X21058Y45128D02*
X21281Y45290D01*
X20839Y44960D02*
X21058Y45128D01*
X20625Y44786D02*
X20839Y44960D01*
X20211Y44421D02*
X20625Y44786D01*
X19816Y44035D02*
X20211Y44421D01*
X19441Y43629D02*
X19816Y44035D01*
X19086Y43204D02*
X19441Y43629D01*
X18752Y42763D02*
X19086Y43204D01*
X18440Y42306D02*
X18752Y42763D01*
X18149Y41836D02*
X18440Y42306D01*
X17882Y41354D02*
X18149Y41836D01*
X17757Y41109D02*
X17882Y41354D01*
X17431Y40420D02*
X17757Y41109D01*
X17143Y39716D02*
X17431Y40420D01*
X16816Y38756D02*
X17143Y39716D01*
X16551Y37777D02*
X16816Y38756D01*
X16302Y36533D02*
X16551Y37777D01*
X16112Y35021D02*
X16302Y36533D01*
X16047Y34010D02*
X16112Y35021D01*
X16023Y33057D02*
X16047Y34010D01*
X16023Y33057D02*
X16065Y32106D01*
X16171Y31159D01*
X16340Y30221D01*
X16569Y29296D01*
X16857Y28388D01*
X17202Y27500D01*
X17296Y27282D01*
X17476Y26889D01*
X17666Y26502D01*
X17865Y26121D01*
X18074Y25746D01*
X18291Y25376D01*
X18517Y25013D01*
X18752Y24655D01*
X18994Y24302D01*
X19244Y23955D01*
X19502Y23613D01*
X19766Y23277D01*
X20037Y22945D01*
X20315Y22618D01*
X20598Y22296D01*
X21183Y21667D01*
X21788Y21056D01*
X22410Y20461D01*
X23049Y19884D01*
X24030Y19047D01*
X25369Y17980D01*
X32966Y12540D01*
X34492Y11332D01*
X36263Y9583D01*
X36655Y9019D01*
X36850Y8655D01*
X37008Y8268D01*
X37151Y8623D01*
X37393Y9067D01*
X37925Y9772D01*
X39307Y11083D01*
X40536Y12080D01*
X46880Y16813D01*
X48970Y18420D01*
X50195Y19422D01*
X50995Y20110D01*
X51389Y20462D01*
X53548Y22637D01*
X54452Y23698D01*
X55123Y24586D01*
X55591Y25277D01*
X56025Y25991D01*
X56293Y26481D01*
X56420Y26730D01*
X56896Y27742D01*
X57288Y28788D01*
X57596Y29862D01*
X57819Y30957D01*
X57957Y32067D01*
X58006Y32960D01*
Y33778D01*
X57956Y34747D02*
X58006Y33778D01*
X57861Y35716D02*
X57956Y34747D01*
X57772Y36361D02*
X57861Y35716D01*
X57660Y37002D02*
X57772Y36361D01*
X57526Y37638D02*
X57660Y37002D01*
X57367Y38268D02*
X57526Y37638D01*
X57183Y38891D02*
X57367Y38268D01*
X56974Y39504D02*
X57183Y38891D01*
X56859Y39807D02*
X56974Y39504D01*
X56738Y40107D02*
X56859Y39807D01*
X56609Y40404D02*
X56738Y40107D01*
X56474Y40698D02*
X56609Y40404D01*
X56331Y40989D02*
X56474Y40698D01*
X56181Y41276D02*
X56331Y40989D01*
X56024Y41559D02*
X56181Y41276D01*
X55859Y41838D02*
X56024Y41559D01*
X55687Y42114D02*
X55859Y41838D01*
X55507Y42385D02*
X55687Y42114D01*
X55319Y42652D02*
X55507Y42385D01*
X55008Y43065D02*
X55319Y42652D01*
X54675Y43463D02*
X55008Y43065D01*
X54323Y43843D02*
X54675Y43463D01*
X53952Y44206D02*
X54323Y43843D01*
X53563Y44549D02*
X53952Y44206D01*
X53157Y44872D02*
X53563Y44549D01*
X52735Y45173D02*
X53157Y44872D01*
X52298Y45452D02*
X52735Y45173D01*
X51847Y45707D02*
X52298Y45452D01*
X51384Y45937D02*
X51847Y45707D01*
X50908Y46140D02*
X51384Y45937D01*
X50666Y46232D02*
X50908Y46140D01*
X50422Y46317D02*
X50666Y46232D01*
X50175Y46395D02*
X50422Y46317D01*
X49925Y46465D02*
X50175Y46395D01*
X49674Y46529D02*
X49925Y46465D01*
X49420Y46584D02*
X49674Y46529D01*
X49165Y46632D02*
X49420Y46584D01*
X48910Y46675D02*
X49165Y46632D01*
X48656Y46710D02*
X48910Y46675D01*
X48400Y46738D02*
X48656Y46710D01*
X48144Y46758D02*
X48400Y46738D01*
X47888Y46771D02*
X48144Y46758D01*
X47375Y46774D02*
X47888Y46771D01*
X46862Y46749D02*
X47375Y46774D01*
X46352Y46695D02*
X46862Y46749D01*
X45845Y46615D02*
X46352Y46695D01*
X45343Y46507D02*
X45845Y46615D01*
X44847Y46373D02*
X45343Y46507D01*
X44358Y46213D02*
X44847Y46373D01*
X43879Y46029D02*
X44358Y46213D01*
X43409Y45820D02*
X43879Y46029D01*
X42951Y45588D02*
X43409Y45820D01*
X42505Y45332D02*
X42951Y45588D01*
X42074Y45054D02*
X42505Y45332D01*
X41834Y44890D02*
X42074Y45054D01*
X41599Y44720D02*
X41834Y44890D01*
X41369Y44544D02*
X41599Y44720D01*
X40923Y44176D02*
X41369Y44544D01*
X40496Y43787D02*
X40923Y44176D01*
X40089Y43379D02*
X40496Y43787D01*
X39700Y42952D02*
X40089Y43379D01*
X39329Y42509D02*
X39700Y42952D01*
X38978Y42050D02*
X39329Y42509D01*
X38644Y41577D02*
X38978Y42050D01*
X38329Y41091D02*
X38644Y41577D01*
X38032Y40594D02*
X38329Y41091D01*
X37619Y39829D02*
X38032Y40594D01*
X37246Y39046D02*
X37619Y39829D01*
X37020Y38516D02*
X37246Y39046D01*
X36763Y39112D02*
X37020Y38516D01*
X36485Y39702D02*
X36763Y39112D01*
X36187Y40283D02*
X36485Y39702D01*
X35868Y40854D02*
X36187Y40283D01*
X35527Y41413D02*
X35868Y40854D01*
X35164Y41957D02*
X35527Y41413D01*
X34779Y42485D02*
X35164Y41957D01*
X34578Y42742D02*
X34779Y42485D01*
X34372Y42994D02*
X34578Y42742D01*
X34160Y43241D02*
X34372Y42994D01*
X33942Y43483D02*
X34160Y43241D01*
X33718Y43719D02*
X33942Y43483D01*
X33488Y43949D02*
X33718Y43719D01*
X33253Y44173D02*
X33488Y43949D01*
X33011Y44390D02*
X33253Y44173D01*
X32764Y44601D02*
X33011Y44390D01*
X32510Y44805D02*
X32764Y44601D01*
X32251Y45002D02*
X32510Y44805D01*
X31985Y45191D02*
X32251Y45002D01*
X31713Y45373D02*
X31985Y45191D01*
X31435Y45547D02*
X31713Y45373D01*
X31151Y45712D02*
X31435Y45547D01*
X30912Y45847D02*
X31151Y45712D01*
X30670Y45974D02*
X30912Y45847D01*
X30423Y46094D02*
X30670Y45974D01*
X30172Y46207D02*
X30423Y46094D01*
X29919Y46312D02*
X30172Y46207D01*
X29662Y46409D02*
X29919Y46312D01*
X29403Y46499D02*
X29662Y46409D01*
X29141Y46582D02*
X29403Y46499D01*
X28877Y46656D02*
X29141Y46582D01*
X28610Y46723D02*
X28877Y46656D01*
X28342Y46782D02*
X28610Y46723D01*
X28072Y46834D02*
X28342Y46782D01*
X27801Y46877D02*
X28072Y46834D01*
X27529Y46912D02*
X27801Y46877D01*
X27255Y46939D02*
X27529Y46912D01*
X26982Y46958D02*
X27255Y46939D01*
X26708Y46969D02*
X26982Y46958D01*
X26433Y46972D02*
X26708Y46969D01*
X26159Y46966D02*
X26433Y46972D01*
X25886Y46951D02*
X26159Y46966D01*
X25613Y46929D02*
X25886Y46951D01*
X25340Y46898D02*
X25613Y46929D01*
X25069Y46858D02*
X25340Y46898D01*
X24799Y46810D02*
X25069Y46858D01*
X24531Y46752D02*
X24799Y46810D01*
X24265Y46687D02*
X24531Y46752D01*
X24000Y46612D02*
X24265Y46687D01*
X23738Y46528D02*
X24000Y46612D01*
X23479Y46436D02*
X23738Y46528D01*
M02*
